<svg xmlns="http://www.w3.org/2000/svg" width="170.579" height="96.444" viewBox="0 0 170.579 96.444">
  <g id="Group_8726" data-name="Group 8726" transform="translate(-656 -1010.587)">
    <line id="Line_467" data-name="Line 467" x2="18" transform="translate(694.079 1064.088)" fill="none" stroke="#2649db" stroke-width="2.4"/>
    <g id="Group_8725" data-name="Group 8725" transform="translate(372.5 1100.053)">
      <g id="Group_672" data-name="Group 672" transform="translate(283.5 -61)">
        <g id="RVM_Logo-F-01" transform="translate(0)">
          <path id="Path_39" data-name="Path 39" d="M33.063,51.935a13.83,13.83,0,0,1-.268-3.182V19.842l5.078-.03v-.528c-4.272.106-8.456-.3-12.669.2A6.62,6.62,0,0,0,21.554,20.9c-1.382,1.219-1.8,3.195-1.922,5.037a7.753,7.753,0,0,0-5.214-4.9,7.033,7.033,0,0,0-6.826,1.922C5.13,25.611,5.36,30.078,7.545,32.974a6.921,6.921,0,0,0,3.425,2.545,4.443,4.443,0,0,0,4.1-.729,4.889,4.889,0,0,0,1.547-3.319,7.662,7.662,0,0,0-1.335-4.848,3.159,3.159,0,0,1-.7-2.362,1.8,1.8,0,0,1,2.347-.939,3.618,3.618,0,0,1,1.848,2.067,12.913,12.913,0,0,1,.821,5.5l.065,23.286H14.6v.537H37.887v-.534H34.87A2.684,2.684,0,0,1,33.063,51.935Z" transform="translate(-5.825 -19.231)" fill="#2649db"/>
        </g>
      </g>
    </g>
    <text id="actor" transform="translate(731.079 1072.088)" fill="#020926" font-size="30" font-family="PlayfairDisplay-Regular, Playfair Display" letter-spacing="-0.04em"><tspan x="0" y="0">actor</tspan></text>
    <text id="x" transform="translate(800.316 1050)" fill="#2649db" font-size="9" font-family="PlayfairDisplay-Italic, Playfair Display" font-style="italic"><tspan x="0" y="0">x</tspan></text>
    <text id="z" transform="translate(717.579 1050)" fill="#2649db" font-size="9" font-family="PlayfairDisplay-Italic, Playfair Display" font-style="italic"><tspan x="0" y="0">z</tspan></text>
    <text id="y" transform="translate(793.079 1081.088)" fill="#2649db" font-size="9" font-family="PlayfairDisplay-Italic, Playfair Display" font-style="italic"><tspan x="0" y="0">y</tspan></text>
    <g id="Group_8723" data-name="Group 8723" transform="translate(233.604 562.769)">
      <g id="Group_8718" data-name="Group 8718">
        <path id="Path_7126" data-name="Path 7126" d="M490.029,482c1.714-7.025,3.023-14.151,5.462-20.992a22.006,22.006,0,0,1,9.52-11.552,9.292,9.292,0,0,1,10.246-.185,3.877,3.877,0,0,1,2.031,4.583c-.346,1.328-1.2,2.488-2.718,2.4a2.9,2.9,0,0,1-2.978-3.209c-.027-2.321-1.7-2.113-3.152-1.859-3.754.659-6.019,3.216-7.453,6.528-4.282,9.9-5.774,20.537-7.945,30.992-.331,1.6-1.686,8.234-2.523,13.3a113.9,113.9,0,0,1-7.834,27.443c-2.141,4.868-4.7,9.465-9.154,12.6-3.656,2.576-7.534,3.155-11.407.394a3.515,3.515,0,0,1-1.377-4.354c.409-1.1,1.1-2.112,2.439-2.124a2.748,2.748,0,0,1,3.084,3.029c.011,2.333,1.614,2.179,3.07,1.984,3.589-.48,5.747-2.835,7.345-5.9,5.251-10.079,6.713-21.254,9.215-32.128.185-.8.236-1.635.45-2.426C487.188,497.427,488.838,486.88,490.029,482Z"/>
      </g>
    </g>
    <line id="Line_463" data-name="Line 463" x2="137" transform="translate(689.579 1053.088)" fill="none" stroke="#020926" stroke-width="0.5" stroke-dasharray="4"/>
    <line id="Line_465" data-name="Line 465" y1="51" transform="translate(798.579 1037.309)" fill="none" stroke="#020926" stroke-width="0.5" stroke-dasharray="4"/>
    <line id="Line_466" data-name="Line 466" x2="137" transform="translate(689.579 1074.088)" fill="none" stroke="#020926" stroke-width="0.5" stroke-dasharray="4"/>
    <line id="Line_464" data-name="Line 464" x2="13" transform="translate(717.579 1053.088)" fill="none" stroke="#020926" stroke-width="2"/>
  </g>
</svg>
