<svg xmlns="http://www.w3.org/2000/svg" xmlns:xlink="http://www.w3.org/1999/xlink" width="310.587" height="265.218" viewBox="0 0 310.587 265.218">
  <defs>
    <clipPath id="clip-path">
      <path id="Path_7141" data-name="Path 7141" d="M586.638-145.157,590-142.018h18l-.254-13.97,4.077,1.088,12.68-.125,2.469-8.711,5.187,11.71,15.815-3.83,7.449-2.522,13.177-7.16,11.955-5.666,13.2.42,27.306-2.757.76-1.979,4.749-12.368L738.063-228.5l26.433-83.56-181.833-95.18L460.3-404.541,453.909-240.8l38.833,28.356,44.543,2.959,13.464,9.082,22.492,49.469Z" transform="translate(-453.909 407.235)" fill="#f0f0f0"/>
    </clipPath>
  </defs>
  <g id="Mask_Group_52" data-name="Mask Group 52" transform="translate(0 0)" clip-path="url(#clip-path)">
    <g id="Endless_loop" data-name="Endless loop" transform="translate(192.691 146.987) rotate(88)">
      <line id="Line_164" data-name="Line 164" x2="31.152" y2="1.477" transform="translate(23.486 59.001)" fill="#ff9300" stroke="#e2585d" stroke-miterlimit="10" stroke-width="0.3"/>
      <path id="Path_339" data-name="Path 339" d="M0,0,33.589,1.137l.625.021-.174-.007" transform="translate(79.113 61.563)" fill="none" stroke="#e2585d" stroke-miterlimit="10" stroke-width="0.3"/>
      <path id="Line_165" data-name="Line 165" d="M0,0,2.76,5.148" transform="translate(100.316 31.672)" fill="#ff9300" stroke="#e2585d" stroke-width="0.3"/>
      <path id="Path_340" data-name="Path 340" d="M106.281,16.908,96.585,0,66.472,42.608l-26.75-.883-.076,0h-.021L7.477,40.662,0,50.8l33.288,63.092h7.375l59.712-83.065" transform="translate(0 0.938)" fill="none" stroke="#e2585d" stroke-miterlimit="10" stroke-width="0.3"/>
      <path id="Path_341" data-name="Path 341" d="M59.7.842,25.763,48.986,0,0" transform="translate(7.524 41.64)" fill="none" stroke="#e2585d" stroke-miterlimit="10" stroke-width="0.3"/>
      <path id="Path_342" data-name="Path 342" d="M36.39,1.575,0,0,16.149,30.288" transform="translate(21.202 54.573)" fill="none" stroke="#e2585d" stroke-miterlimit="10" stroke-width="0.3"/>
      <path id="Path_343" data-name="Path 343" d="M0,89.142,63.98,0l3.107,6.077" transform="translate(33.288 25.689)" fill="none" stroke="#e2585d" stroke-miterlimit="10" stroke-width="0.3"/>
      <line id="Line_166" data-name="Line 166" x1="16.435" transform="translate(91.249 44.736)" fill="none" stroke="#e2585d" stroke-miterlimit="10" stroke-width="0.3"/>
      <line id="Line_167" data-name="Line 167" x2="28.635" y2="1.092" transform="translate(82.015 57.305)" fill="none" stroke="#e2585d" stroke-miterlimit="10" stroke-width="0.3"/>
      <path id="Path_344" data-name="Path 344" d="M0,.74,7.034,0l8.158,14.748" transform="translate(96.627 0)" fill="none" stroke="#e2585d" stroke-miterlimit="10" stroke-width="0.3"/>
      <line id="Line_168" data-name="Line 168" x2="19.395" y2="35.727" transform="translate(108.731 22.593)" fill="none" stroke="#e2585d" stroke-miterlimit="10" stroke-width="0.3"/>
      <path id="Path_345" data-name="Path 345" d="M5.08,0l.127.787L0,.865" transform="matrix(1, 0.017, -0.017, 1, 110.327, 57.51)" fill="none" stroke="#e2585d" stroke-miterlimit="10" stroke-width="0.3"/>
      <path id="Path_346" data-name="Path 346" d="M0,0Q12.925,24.311,25.847,48.637l-.347-.66" transform="translate(111.82 14.748)" fill="none" stroke="#e2585d" stroke-miterlimit="10" stroke-width="0.3"/>
      <path id="Path_347" data-name="Path 347" d="M.079,0l.61,1.168H0" transform="translate(106.996 43.565)" fill="none" stroke="#e2585d" stroke-miterlimit="10" stroke-width="0.3"/>
    </g>
  </g>
</svg>
