<svg xmlns="http://www.w3.org/2000/svg" width="26.291" height="17.61" viewBox="0 0 26.291 17.61">
  <g id="canada" transform="translate(-0.539 -0.24)">
    <path id="Path_86" data-name="Path 86" d="M23.92,17.81H3.45a2.94,2.94,0,0,1-2.91-3V3.24a2.94,2.94,0,0,1,2.91-3H23.92a2.94,2.94,0,0,1,2.91,3V14.86a2.93,2.93,0,0,1-2.91,2.95Z" fill="#f5f5f5"/>
    <rect id="Rectangle_40" data-name="Rectangle 40" width="14.5" height="17.52" transform="translate(6.43 0.29)" fill="#f5f5f5"/>
    <path id="Path_87" data-name="Path 87" d="M3.45.28a2.94,2.94,0,0,0-2.91,3V14.85a2.94,2.94,0,0,0,2.91,3h3V.29Z" fill="#ff4b55"/>
    <path id="Path_88" data-name="Path 88" d="M23.92.29h-3V17.81h3a2.93,2.93,0,0,0,2.91-2.95V3.25A2.94,2.94,0,0,0,23.92.29Z" fill="#ff4b55"/>
    <path id="Path_89" data-name="Path 89" d="M16.44,11.07l2.69-1.56-.62-.31a.49.49,0,0,1-.25-.48l.2-1.53-1.14.34a.44.44,0,0,1-.56-.34l-.11-.51L15.58,8a.22.22,0,0,1-.39-.19l.45-2.7-.7.19a.45.45,0,0,1-.52-.3l-.73-1.41h0L13,5a.44.44,0,0,1-.52.22l-.7-.19.46,2.7A.258.258,0,1,1,11.8,8L10.73,6.68l-.11.5a.46.46,0,0,1-.57.35L8.91,7.19l.2,1.53a.44.44,0,0,1-.25.47l-.61.32,2.69,1.56a.67.67,0,0,1,.28.81l-.23.63,2.31-.2a.21.21,0,0,1,.23.22L13.46,15h.45l-.07-2.51a.21.21,0,0,1,.23-.22l2.31.2-.23-.62A.67.67,0,0,1,16.44,11.07Z" fill="#ff4b55"/>
  </g>
</svg>
