<svg xmlns="http://www.w3.org/2000/svg" width="26.311" height="17.645" viewBox="0 0 26.311 17.645">
  <g id="india" transform="translate(-0.53 -0.178)">
    <path id="Path_81" data-name="Path 81" d="M.53,11.94v3.44a2.44,2.44,0,0,0,2.54,2.44H24.291a2.44,2.44,0,0,0,2.54-2.44V11.94Z" transform="translate(0 0)" fill="#359846"/>
    <path id="Path_82" data-name="Path 82" d="M24.291.18H3.07A2.44,2.44,0,0,0,.53,2.62V6.06h26.3V2.62A2.44,2.44,0,0,0,24.291.18Z" transform="translate(0 0)" fill="#ea8634"/>
    <rect id="Rectangle_39" data-name="Rectangle 39" width="26.311" height="5.88" transform="translate(0.53 6.06)" fill="#fff"/>
    <path id="Path_83" data-name="Path 83" d="M13.69,6.36a2.63,2.63,0,1,0,1.87.77,2.64,2.64,0,0,0-1.87-.77Zm2.18,2.93c0,.05,0,.13.08.13s0,.25-.08.38H15.7c-.04,0,0,.13,0,.17s-.12.21-.17.33c0,0-.12,0-.16.05a.1.1,0,0,0,0,.16l-.13.13-.92-1L14,9.34V9.29l.38.3,1.22.63-1.09-.84-.42-.17V9.13l.42.16,1.34.3-1.3-.42-.46-.09V9H16l-1.38-.09-.46.05V8.83l.46-.08,1.3-.42-1.34.29-.42.17V8.71l.42-.17,1.17-.76-1.22.63-.37.3V8.66l.38-.29.92-1,.13.13a.12.12,0,0,0,0,.16h.17a1,1,0,0,1,.17.33.13.13,0,0,0-.05.17c.05,0,.09.08.17,0a1.31,1.31,0,0,1,.09.38s-.09.08-.09.13.09.12.13.08v.34C15.91,9.17,15.87,9.21,15.87,9.29Zm-3.65-2a.12.12,0,0,0,.16,0,.24.24,0,0,0,0-.17.86.86,0,0,1,.33-.17.115.115,0,0,0,.17,0c.08-.09.08-.08,0-.16a1.05,1.05,0,0,1,.38-.09s.08.09.13.09.12-.09.08-.13h.34s0,.13.08.13.13,0,.13-.09.25,0,.37.09v.16c0,.04.12,0,.16,0s.21.13.34.17a.11.11,0,0,0,0,.17.14.14,0,0,0,.17,0l.12.12-1,.93-.3.37h0l.29-.38L14.9,7l-.84,1.13-.16.42h-.09L14,8.12l.29-1.34-.42,1.3-.08.46h-.08V6.69L13.6,8.08v.46h-.08l-.08-.46-.42-1.3.29,1.34.17.42h-.09l-.16-.42L12.51,7l.63,1.21.29.38h0l-.29-.38-1-.92s-.01-.01.08-.05Zm-.17,3.4-.13-.13a.14.14,0,0,0,0-.17.25.25,0,0,0-.17,0,.85.85,0,0,1-.16-.33c0-.05.08-.09,0-.17s-.08-.09-.17,0a1.36,1.36,0,0,1-.08-.38s.08-.09.08-.13-.08-.12-.12-.08V8.83s.12,0,.12-.08,0-.13-.08-.13,0-.25.08-.38h.17c.04,0,0-.12,0-.17s.12-.21.16-.33a.11.11,0,0,0,.17,0c0-.09,0-.13,0-.17l.13-.13.92,1,.38.3h0l-.38-.3-1.22-.63,1.18.76.42.17v.08l-.42-.17L11.5,8.37l1.3.42.47.08V9H11.38l1.38.08h.46v.09l-.46.08-1.3.42,1.34-.29.42-.17v.08l-.42.17-1.18.76,1.22-.63.38-.3h0l-.38.3Zm1.47.67s0-.13-.09-.13-.12,0-.12.09-.25,0-.38-.09v-.17c0-.05-.13,0-.17.05s-.21-.13-.34-.17a.1.1,0,0,0,0-.17.14.14,0,0,0-.17,0l-.12-.12,1-.93.29-.38v.05l-.29.37-.63,1.22.76-1.17.16-.42h.09l-.17.42-.29,1.34.42-1.3.08-.46h.08v.46l.09,1.38.08-1.38V9.39h.08l.09.46.42,1.3L14,9.8l-.17-.42h.09l.17.42.75,1.17-.63-1.22-.29-.37V9.33l.29.38,1.05.93-.12.12a.14.14,0,0,0-.17,0,.27.27,0,0,0,0,.17,1.08,1.08,0,0,1-.34.17.12.12,0,0,0-.17-.05c-.08.05-.08.09,0,.17a1.24,1.24,0,0,1-.38.09s-.08-.09-.12-.09-.13.09-.09.13h-.33Z" transform="translate(0 0)" fill="#7d7dbc"/>
    <path id="Path_84" data-name="Path 84" d="M14.27,9.5l.13.13V9.59Z" transform="translate(0 0)" fill="#6060b2"/>
    <path id="Path_85" data-name="Path 85" d="M13.69,6.36a2.74,2.74,0,0,0-2,.92l.25.21.13-.13.12-.12a.14.14,0,0,0,.17,0,.28.28,0,0,0,0-.17s.13,0,.17-.08l.63,1.21.3.38h-.05l-.29-.38-1.05-.92.88,1,.13.08.25.21h0l.71.59h0l.37.29,1.22.63s0,.13-.08.17a.11.11,0,0,0-.17,0,.14.14,0,0,0,0,.17h0l.25.21A2.69,2.69,0,0,0,16.33,9a2.62,2.62,0,0,0-2.64-2.64Zm-.21,2.22-.17-.42L12.55,7a.24.24,0,0,1,.17-.09.12.12,0,0,0,.17,0,.124.124,0,0,0,0-.17h.17l.29,1.34.17.42S13.52,8.58,13.48,8.58Zm.25,0V8.12l-.08-1.39L13.6,8.08v.46h-.08l-.08-.46-.42-1.3h.16c.04,0,.09.09.13.09s.13-.09.08-.13h.34s0,.13.08.13.13,0,.13-.09.13,0,.17,0l-.42,1.3-.09.46Zm.08,0L14,8.16l.29-1.34h.17c.04,0,0,.13,0,.17s.13,0,.17,0a.174.174,0,0,1,.17.08l-.76,1.09-.16.42ZM15.7,9.84v.17a.181.181,0,0,1-.08.17l-1.13-.8-.42-.17V9.13l.42.16,1.34.3v.17A.21.21,0,0,0,15.7,9.84Zm.29-1v.34s-.12,0-.12.08,0,.13.08.13,0,.12,0,.17l-1.3-.42L14.15,9h.46L16,8.92l-1.38-.09h-.46V8.79l.46-.08,1.3-.42v.16c0,.04-.08.09-.08.13.03.21.07.25.16.25Zm-.29-.67a.13.13,0,0,0,.17,0v.17l-1.34.29-.42.17V8.72l.42-.17,1.13-.76a.25.25,0,0,1,.08.17s-.08.16-.04.2Zm0-.29-1.22.63-.38.29h0l.38-.3.92-1-1.05.93L14,8.71V8.66l.29-.37.63-1.22s.13,0,.17.08a.11.11,0,0,0,0,.17.14.14,0,0,0,.17,0l.12.13.13.12a.14.14,0,0,0,0,.17.27.27,0,0,0,.17,0,.317.317,0,0,0-.02.13Z" transform="translate(0 0)" fill="#6060b2"/>
  </g>
</svg>
