<svg xmlns="http://www.w3.org/2000/svg" width="666.279" height="133.935" viewBox="0 0 666.279 133.935">
  <g id="Group_829" data-name="Group 829" transform="translate(-92.504 -69)">
    <g id="Group_672" data-name="Group 672" transform="translate(92.504 78.584)">
      <g id="RVM_Logo-F-01" transform="translate(0 0)">
        <path id="Path_39" data-name="Path 39" d="M260.5,126.735a31.565,31.565,0,0,1-1.7-8.773,375.928,375.928,0,0,1-.814-51.984,97.4,97.4,0,0,0-.473-22.083,29.052,29.052,0,0,0-10.74-18.74,35.179,35.179,0,0,0-17.093-5.408c-15.149-1.558-33.257,1.81-39.495,17.664-.195.472-.639,1.829-1.334,1.663s-.639-1.344-.814-1.829c-.291-.773-.571-1.51-.852-2.216a23.44,23.44,0,0,0-8.473-9.935,30.968,30.968,0,0,0-12.294-4.652A85.051,85.051,0,0,0,153.28,19.39c-8.92,0-18.8.482-24.726,8.154a23.843,23.843,0,0,0-1.839,2.749,69.844,69.844,0,0,0-5.609,13.785l-5.022,15.682L106.079,91.126,96.038,122.505l-1.054,3.445a41.682,41.682,0,0,1-.8-10V21.229l16.639-.1V19.4c-14,.348-27.7-.958-41.5.667a21.69,21.69,0,0,0-11.956,4.613c-4.527,3.994-5.9,10.465-6.3,16.5A25.4,25.4,0,0,0,33.982,25.127a23.04,23.04,0,0,0-22.364,6.3C3.551,40.132,4.3,54.766,11.465,64.257a22.667,22.667,0,0,0,11.193,8.336,14.558,14.558,0,0,0,13.409-2.388,16.017,16.017,0,0,0,5.108-10.874A25.1,25.1,0,0,0,36.8,43.449a10.35,10.35,0,0,1-2.3-7.739,5.909,5.909,0,0,1,7.691-3.078A11.854,11.854,0,0,1,48.255,39.4a42.307,42.307,0,0,1,2.688,18.012l.214,76.3H34.582v1.759h76.282v-1.75h-9.9a3.738,3.738,0,0,1-2.988-.891,4.013,4.013,0,0,1-.086-3.493l9.817-31.427,9.827-31.507c2.331-7.458,4.712-14.906,7.071-22.348l1.481-4.671a27.5,27.5,0,0,1,3.665-8.3,9.437,9.437,0,0,1,7.739-4.169,8.706,8.706,0,0,1,6.162,3.419,15.8,15.8,0,0,1,2.9,6.771,42.4,42.4,0,0,1,.872,8.262v58.742a40.5,40.5,0,0,0,1.74,12.285,24.9,24.9,0,0,0,6.037,10.05,28.468,28.468,0,0,0,11.231,6.771,53.316,53.316,0,0,0,17.412,2.43H202.5V133.96a10.063,10.063,0,0,1-9.858-7.295,55.323,55.323,0,0,1-2.854-19.762c0-10.583-.319-21.157-.214-31.737a157.012,157.012,0,0,1,1.887-27.791c1.43-7.419,3.54-20.914,15.991-19.222a6.647,6.647,0,0,1,4.122,2.216,18.7,18.7,0,0,1,3.665,11.975c1.143,19.6-.706,39.268.125,58.883.358,8.53,1.462,17.636,6.957,24.183s14.239,9.226,22.7,9.926,16.987-.291,25.451.319l-.105-1.935a9.418,9.418,0,0,1-8.939-5.166,14.773,14.773,0,0,1-.919-1.82Z" transform="translate(-5.829 -19.233)" fill="#fff"/>
      </g>
    </g>
    <text id="RV_Matrix" data-name="RV Matrix" transform="translate(395.504 134)" fill="#fff" font-size="60" font-family="PlayfairDisplay-Bold, Playfair Display" font-weight="700"><tspan x="0" y="0">RV Matrix</tspan></text>
    <text id="Endless_Innovation" data-name="Endless Innovation" transform="translate(397.782 191.935)" fill="#fff" font-size="44" font-family="PlayfairDisplay-Italic, Playfair Display" font-style="italic"><tspan x="0" y="0">Endless Innovation</tspan></text>
  </g>
</svg>
