<svg xmlns="http://www.w3.org/2000/svg" xmlns:xlink="http://www.w3.org/1999/xlink" width="1033.599" height="877.076" viewBox="0 0 1033.599 877.076">
  <defs>
    <clipPath id="clip-path">
      <path id="Path_7125" data-name="Path 7125" d="M892.338,469.841h5.838l64.648-37.476,2.4-3.934,21.188,3.3,38-.406,5.423-28.227,18.972,30.737,110.8-27.859,8.765,4.524v-13.4l39.785-18.856,43.934,1.4,90.871-9.177,2.53-6.587,15.8-41.16L1399.54,187.59l87.968-278.078L882.389-407.235l-407.205,8.968L453.909,146.65l129.231,94.364,148.233,9.849,71.125,15.17,48.532,179.68Z" fill="#f0f0f0"/>
    </clipPath>
  </defs>
  <g id="Mask_Group_51" data-name="Mask Group 51" transform="translate(-453.909 407.235)" clip-path="url(#clip-path)">
    <g id="Endless_loop" data-name="Endless loop" transform="translate(582.175 671.963) rotate(-101)">
      <line id="Line_164" data-name="Line 164" x2="185.431" y2="8.794" transform="translate(158.133 446.706)" fill="#ff9300" stroke="#e2585d" stroke-miterlimit="10" stroke-width="1.179"/>
      <path id="Path_339" data-name="Path 339" d="M428.2,414.449,771.1,425.122l6.376.2-1.775-.062" transform="translate(61.053 47.509)" fill="none" stroke="#e2585d" stroke-miterlimit="10" stroke-width="1.179"/>
      <line id="Line_165" data-name="Line 165" x2="43.858" y2="77.766" transform="translate(615.467 284.032)" fill="#ff9300" stroke="#e2585d" stroke-miterlimit="10" stroke-width="1.179"/>
      <path id="Path_340" data-name="Path 340" d="M665.808,229.607,593.253,100.362,414.009,353.986l-159.228-5.253-.45-.019-.124,0L62.844,342.4,18.336,402.76,216.479,778.311h43.9L615.81,283.868" transform="translate(0 0.724)" fill="none" stroke="#e2585d" stroke-miterlimit="10" stroke-width="1.179"/>
      <path id="Path_341" data-name="Path 341" d="M412.709,316.277l-202,286.573L57.354,311.262" transform="translate(5.77 32.103)" fill="none" stroke="#e2585d" stroke-miterlimit="10" stroke-width="1.179"/>
      <path id="Path_342" data-name="Path 342" d="M344.784,387.606l-216.608-9.373L224.3,558.525" transform="translate(16.361 42.114)" fill="none" stroke="#e2585d" stroke-miterlimit="10" stroke-width="1.179"/>
      <path id="Path_343" data-name="Path 343" d="M190.791,759.21,571.628,228.594l18.494,36.174" transform="translate(25.689 19.825)" fill="none" stroke="#e2585d" stroke-miterlimit="10" stroke-width="1.179"/>
      <line id="Line_166" data-name="Line 166" x1="97.83" transform="translate(561.495 361.798)" fill="none" stroke="#e2585d" stroke-miterlimit="10" stroke-width="1.179"/>
      <line id="Line_167" data-name="Line 167" x2="170.449" y2="6.501" transform="translate(506.53 436.611)" fill="none" stroke="#e2585d" stroke-miterlimit="10" stroke-width="1.179"/>
      <path id="Path_344" data-name="Path 344" d="M518.937,99.912l41.872-4.407,48.563,87.788" transform="translate(74.568)" fill="none" stroke="#e2585d" stroke-miterlimit="10" stroke-width="1.179"/>
      <line id="Line_168" data-name="Line 168" x2="115.447" y2="212.664" transform="translate(665.556 229.988)" fill="none" stroke="#e2585d" stroke-miterlimit="10" stroke-width="1.179"/>
      <path id="Path_345" data-name="Path 345" d="M693.074,393.567l2.538,4.686-104.015.461" transform="translate(85.392 44.398)" fill="none" stroke="#e2585d" stroke-miterlimit="10" stroke-width="1.179"/>
      <path id="Path_346" data-name="Path 346" d="M597.647,171.913Q674.582,316.626,751.5,461.421l-2.068-3.93" transform="translate(86.294 11.382)" fill="none" stroke="#e2585d" stroke-miterlimit="10" stroke-width="1.179"/>
      <path id="Path_347" data-name="Path 347" d="M574.312,323.8l2.239,3.973h-2.528" transform="translate(82.774 34.006)" fill="none" stroke="#e2585d" stroke-miterlimit="10" stroke-width="1.179"/>
    </g>
  </g>
</svg>
